<?xml version="1.0" standalone="no"?>
<!DOCTYPE svg PUBLIC "-//W3C//DTD SVG 20010904//EN"
 "http://www.w3.org/TR/2001/REC-SVG-20010904/DTD/svg10.dtd">
<svg version="1.0" xmlns="http://www.w3.org/2000/svg"
 width="300.000000pt" height="300.000000pt" viewBox="0 0 300.000000 300.000000"
 preserveAspectRatio="xMidYMid meet">
<metadata>
Created by potrace 1.11, written by Peter Selinger 2001-2013
</metadata>
<g transform="translate(0.000000,300.000000) scale(0.100000,-0.100000)"
fill="#000000" stroke="none">
<path d="M0 1500 l0 -1500 1500 0 1500 0 0 1500 0 1500 -1500 0 -1500 0 0
-1500z m770 240 c113 -197 209 -358 213 -357 4 1 99 162 211 357 l204 355 54
0 53 0 3 -532 2 -533 -55 0 -55 0 -2 429 -3 429 -189 -329 -189 -330 -36 3
-36 3 -185 323 -185 323 -3 -426 -2 -425 -55 0 -55 0 0 535 0 535 53 0 53 0
204 -360z m1541 330 c64 -20 179 -84 179 -100 0 -11 -40 -80 -47 -80 -2 0 -19
11 -36 24 -112 84 -293 109 -412 57 -87 -38 -130 -128 -106 -219 20 -74 73
-101 298 -156 78 -19 166 -45 195 -58 113 -52 163 -127 163 -243 0 -127 -68
-213 -205 -261 -43 -15 -83 -19 -185 -19 -116 0 -139 3 -209 28 -43 15 -110
48 -148 72 -75 49 -74 45 -31 112 l15 22 63 -44 c109 -74 160 -89 310 -90 119
0 134 2 179 25 62 31 87 64 93 123 7 61 -1 90 -37 131 -39 44 -93 66 -270 111
-287 73 -361 139 -347 311 9 121 79 204 210 251 84 30 237 32 328 3z"/>
</g>
</svg>
