<?xml version="1.0" encoding="utf-8"?>
<!-- Generator: Adobe Illustrator 21.0.2, SVG Export Plug-In . SVG Version: 6.00 Build 0)  -->
<svg version="1.1" id="Layer_1" xmlns="http://www.w3.org/2000/svg" xmlns:xlink="http://www.w3.org/1999/xlink" x="0px" y="0px"
	 viewBox="0 0 99.4 18.6" style="enable-background:new 0 0 99.4 18.6;" xml:space="preserve">
<style type="text/css">
	.st0{fill:#2397D4;}
	.st1{fill:#2F4A75;}
</style>
<title>ebanx</title>
<g>
	<path class="st0" d="M0.2,0l8.4,6.9l6.1-6.6c0.1-0.1,0-0.2-0.1-0.2H0.2z"/>
	<path class="st0" d="M0.2,18.6l8.4-6.9l6.1,6.6c0.1,0.1,0,0.2-0.1,0.2H0.2z"/>
	<path class="st1" d="M0.3,0.1l11.2,9.1c0.1,0.1,0.1,0.2,0,0.2L0.3,18.5c-0.1,0.1-0.3,0-0.3-0.1V0.2C0,0,0.2,0,0.3,0.1z"/>
	<path class="st1" d="M46.5,13.2c0,3.2-2.6,5.4-5.8,5.4H33c-0.1,0-0.2-0.1-0.2-0.2V0.2C32.9,0.1,32.9,0,33,0h7.2
		c3.1,0,5.6,2.1,5.6,5.2c0,1.6-0.7,2.8-1.7,3.7C45.6,9.8,46.5,11.3,46.5,13.2z M36.5,3.6v3.8c0,0.1,0.1,0.2,0.2,0.2h3.5
		c1.2,0,2.1-1,2-2.2c-0.1-1-1-1.8-2.1-1.8l-3.4,0C36.6,3.4,36.5,3.5,36.5,3.6z M42.9,12.8c-0.1-1.1-1.1-2-2.2-2h-4.2v4.4h4.2
		C42,15.2,43,14.1,42.9,12.8z"/>
	<path class="st1" d="M59.6,15.2h-7.2c-0.1,0-0.1,0-0.1,0.1l-1,3.1c0,0.1-0.1,0.1-0.1,0.1h-3.7c-0.1,0-0.2-0.1-0.1-0.2l6.4-18.3
		c0-0.1,0.1-0.1,0.1-0.1h4.3c0.1,0,0.1,0,0.1,0.1l6.4,18.3c0,0.1,0,0.2-0.1,0.2h-3.7c-0.1,0-0.1,0-0.1-0.1l-1-3.1
		C59.7,15.3,59.7,15.2,59.6,15.2z M58.5,11.6l-2.4-7c0-0.1-0.2-0.1-0.3,0l-2.4,7c0,0.1,0,0.2,0.1,0.2h4.7
		C58.5,11.8,58.5,11.7,58.5,11.6z"/>
	<path class="st1" d="M81,0.2v18.2c0,0.1-0.1,0.1-0.1,0.1h-2.6c0,0-0.1,0-0.1-0.1L70.3,7.2v11.2c0,0.1-0.1,0.1-0.1,0.1h-3.4
		c-0.1,0-0.1-0.1-0.1-0.1V0.2c0-0.1,0.1-0.1,0.1-0.1h2.6c0,0,0.1,0,0.1,0.1l7.9,11.2V0.2c0-0.1,0.1-0.1,0.1-0.1h3.4
		C80.9,0,81,0.1,81,0.2z"/>
	<path class="st1" d="M94.4,18.5l-3.4-5.7c-0.1-0.1-0.2-0.1-0.3,0l-3.4,5.7c0,0-0.1,0.1-0.1,0.1h-3.8c-0.1,0-0.2-0.1-0.1-0.2
		l5.5-9.2c0,0,0-0.1,0-0.2l-5.2-8.7c-0.1-0.1,0-0.2,0.1-0.2h3.8c0.1,0,0.1,0,0.1,0.1l3.1,5.3c0.1,0.1,0.2,0.1,0.3,0l3.1-5.3
		c0,0,0.1-0.1,0.1-0.1H98c0.1,0,0.2,0.1,0.1,0.2L92.9,9c0,0,0,0.1,0,0.2l5.5,9.2c0.1,0.1,0,0.2-0.1,0.2h-3.8
		C94.4,18.6,94.4,18.5,94.4,18.5z"/>
	<path class="st1" d="M23.3,15.1c-0.5-0.1-0.8-0.5-0.8-1v-3c0-0.1,0.1-0.1,0.1-0.1h6.7c0.1,0,0.1-0.1,0.1-0.1V7.6
		c0-0.1-0.1-0.1-0.1-0.1h-6.7c-0.1,0-0.1-0.1-0.1-0.1V3.7c0-0.1,0.1-0.1,0.1-0.1H30c0.1,0,0.1-0.1,0.1-0.1V0.2C30.2,0.1,30.1,0,30,0
		H19c-0.1,0-0.1,0.1-0.1,0.1v11.2v3.8c0,1.9,1.6,3.5,3.5,3.5h8v-3.5H23.3z"/>
</g>
</svg>
